<svg xmlns="http://www.w3.org/2000/svg" viewBox="0 0 1200 630" width="1200" height="630">
  <defs>
    <linearGradient id="bgGrad" x1="0%" y1="0%" x2="100%" y2="100%">
      <stop offset="0%" style="stop-color:#0D0D1A"/>
      <stop offset="100%" style="stop-color:#1A1A2E"/>
    </linearGradient>
    <linearGradient id="accentGrad" x1="0%" y1="0%" x2="100%" y2="100%">
      <stop offset="0%" style="stop-color:#667EEA"/>
      <stop offset="100%" style="stop-color:#764BA2"/>
    </linearGradient>
    <linearGradient id="pinkGrad" x1="0%" y1="0%" x2="100%" y2="100%">
      <stop offset="0%" style="stop-color:#f093fb"/>
      <stop offset="100%" style="stop-color:#f5576c"/>
    </linearGradient>
  </defs>
  
  <!-- Background -->
  <rect width="1200" height="630" fill="url(#bgGrad)"/>
  
  <!-- Decorative circles -->
  <circle cx="100" cy="100" r="200" fill="url(#accentGrad)" opacity="0.1"/>
  <circle cx="1100" cy="530" r="250" fill="url(#pinkGrad)" opacity="0.1"/>
  <circle cx="900" cy="150" r="100" fill="#4facfe" opacity="0.1"/>
  
  <!-- App Icon placeholder (circle with gradient) -->
  <rect x="80" y="215" width="200" height="200" rx="40" fill="url(#accentGrad)"/>
  <text x="180" y="340" fill="white" font-family="Arial, sans-serif" font-size="80" text-anchor="middle">🌸</text>
  
  <!-- Text Content -->
  <text x="340" y="260" fill="white" font-family="Helvetica, Arial, sans-serif" font-size="72" font-weight="bold">Chibi Soul</text>
  <text x="340" y="330" fill="#A0A0B8" font-family="Helvetica, Arial, sans-serif" font-size="36">Notes &amp; Quotes</text>
  
  <!-- Tagline -->
  <text x="340" y="400" fill="#667EEA" font-family="Helvetica, Arial, sans-serif" font-size="28">Your private companion for mindfulness</text>
  
  <!-- Features badges -->
  <rect x="340" y="440" width="140" height="40" rx="20" fill="#252542"/>
  <text x="410" y="467" fill="#10B981" font-family="Arial, sans-serif" font-size="16" text-anchor="middle">✓ 100% Private</text>
  
  <rect x="500" y="440" width="140" height="40" rx="20" fill="#252542"/>
  <text x="570" y="467" fill="#10B981" font-family="Arial, sans-serif" font-size="16" text-anchor="middle">✓ Zero Tracking</text>
  
  <rect x="660" y="440" width="120" height="40" rx="20" fill="#252542"/>
  <text x="720" y="467" fill="#10B981" font-family="Arial, sans-serif" font-size="16" text-anchor="middle">✓ Offline</text>
  
  <!-- Website URL -->
  <text x="340" y="540" fill="#667EEA" font-family="Helvetica, Arial, sans-serif" font-size="24">kungmyat.me</text>
  
  <!-- Decorative dots -->
  <circle cx="1050" cy="315" r="8" fill="#667EEA" opacity="0.6"/>
  <circle cx="1080" cy="340" r="6" fill="#f093fb" opacity="0.6"/>
  <circle cx="1040" cy="360" r="10" fill="#4facfe" opacity="0.6"/>
  <circle cx="1100" cy="300" r="5" fill="#764BA2" opacity="0.6"/>
</svg>